# xmcd
#
# Track frame offsets: 
#        150
#        12965
#        39340
#        56953
#        69926
#        85494
#        107538
#        125026
#        146921
#        171325
#        188125
#        217256
#
# Disc length: 3205 seconds
#
# Revision: 0
# Processed by: cddbd v1.5.2PL0 Copyright (c) Steve Scherf et al.
# Submitted via: ExactAudioCopy v1.0b3
#
DISCID=b60c830c
DTITLE=Nowhere Train - Station
DYEAR=2012
DGENRE=Alternative
TTITLE0=Ashes
TTITLE1=Annabelle
TTITLE2=With A Lot Of Love
TTITLE3=Walking Man
TTITLE4=Rules Of Engagement
TTITLE5=To All My Demons
TTITLE6=Outrageous
TTITLE7=Black Air
TTITLE8=I Take You In
TTITLE9=Nowhere Train
TTITLE10=Are You There?
TTITLE11=Time To Go
EXTD=
EXTT0=
EXTT1=
EXTT2=
EXTT3=
EXTT4=
EXTT5=
EXTT6=
EXTT7=
EXTT8=
EXTT9=
EXTT10=
EXTT11=
PLAYORDER=
